<?xml version="1.0" encoding="UTF-8"?>
<svg width="339px" height="180px" viewBox="0 0 339 180" version="1.1" xmlns="http://www.w3.org/2000/svg" xmlns:xlink="http://www.w3.org/1999/xlink">
    <!-- Generator: Sketch 51.1 (57501) - http://www.bohemiancoding.com/sketch -->
    <title>Combined Shape</title>
    <desc>Created with Sketch.</desc>
    <defs>
        <linearGradient x1="57.0288936%" y1="-21.8700975%" x2="57.0288936%" y2="139.650641%" id="linearGradient-1">
            <stop stop-color="#7700FF" offset="0%"></stop>
            <stop stop-color="#546BFE" offset="34.8064184%"></stop>
            <stop stop-color="#3CACFF" offset="71.9312057%"></stop>
            <stop stop-color="#81D8FF" offset="100%"></stop>
            <stop stop-color="#82D9FF" offset="100%"></stop>
        </linearGradient>
    </defs>
    <g id="Page-1" stroke="none" stroke-width="1" fill="none" fill-rule="evenodd">
        <g id="Artboard" transform="translate(-181.000000, -135.000000)" fill="url(#linearGradient-1)" fill-rule="nonzero">
            <g id="Group" transform="translate(350.500000, 445.500000) scale(-1, 1) rotate(-180.000000) translate(-350.500000, -445.500000) translate(181.000000, 135.000000)">
                <path d="M287.817206,605.470295 C279.553794,579.877313 277.149936,516.215264 283.358003,484.521393 C289.990536,450.747408 316.284474,432.717553 334.631215,449.210509 C342.326033,456.136652 337.404464,469.47758 329.051998,464.45251 C315.198368,456.036409 308.113886,464.313404 305.801327,471.884264 C296.444874,503.196619 301.36331,563.031214 309.741842,595.838122 C312.686475,607.53808 312.569673,608.466331 307.882968,613.844124 C298.435286,624.912841 293.506289,622.886524 287.817206,605.470295 Z M42.2928753,616.199386 C35.0268486,614.217276 23.0170949,608.504172 20.1087664,607.262729 C4.04469748,600.721246 -3.85078654,585.144225 1.8419268,571.276675 C5.44802558,562.359824 10.8067823,560.675584 11.4642955,568.190994 C12.4383891,579.324935 16.1946355,583.857943 29.7581001,590.618201 C82.4164746,616.489916 124.557167,585.799492 98.0819159,547.72679 C92.3176672,539.442752 65.3234928,524.585827 61.7115087,524.901835 C59.9518242,525.055787 59.1343031,525.103323 57.696925,543.01674 C56.2595469,560.930156 50.4308428,564.693099 41.1335523,566.160958 C36.8050008,566.820136 36.0153763,566.328261 35.8515561,562.322393 C35.5626511,557.953497 36.2533494,530.557494 36.9367366,517.03471 C37.1824922,511.310134 33.814513,510.046296 26.2057018,507.346232 C15.3262198,503.529919 13.3043634,509.352986 11.743002,510.574908 C10.1816406,511.796829 6.06210961,518.177391 2.05089935,511.796829 C-4.56459033,501.249939 5.9969171,488.261726 23.1361657,488.261726 C26.2210997,488.261726 26.2210997,487.942725 32.1542969,489.256202 C38.0874941,490.569678 36.7968978,485.879248 37.097168,482.229834 C37.3974381,478.58042 37.3924561,474.419532 38.0874941,469.400934 C41.2216901,447.623332 46.2128906,446.590434 52.6671515,442.858294 C57.0133995,440.537959 60.2460937,440.390566 62.3652344,442.416117 C65.5439453,445.454444 61.3413233,470.73302 60.8535156,475.82432 C60.313763,481.521823 60.2908129,478.099782 60.302288,489.54054 C60.313763,500.981299 63.3827956,500.678556 65.8730469,502.511573 C68.3632982,504.344589 70.6118872,505.640129 74.0142069,507.651195 C101.175077,523.693052 120.263681,542.404495 124.743851,557.345387 C135.992982,595.254314 90.1460011,628.748031 42.2928753,616.199386 Z M137.155453,610.880934 C135.786424,608.971667 138.696126,579.476496 140.350984,544.28456 C140.979714,532.986127 141.530982,514.141683 141.675648,502.30099 C142.28762,463.88368 143.016564,460.782822 153.545436,455.941832 C162.059496,452.009948 157.870117,469.644633 161.121591,488.795024 C164.373065,507.945414 187.600666,538.328757 192.501783,532.584847 C196.245844,528.196959 194.203202,520.037432 194.299112,506.800531 C194.382865,469.240414 197.171326,458.51892 208.119253,452.35858 C214.444143,448.782725 217.034601,452.30516 215.890625,462.925883 C212.880859,479.720805 214.812385,497.510342 214.592958,507.210183 C214.1113,530.711898 214.883468,545.299485 206.711254,553.692745 C193.601147,567.197724 180.070217,557.528996 167.446116,537.001183 L161.228603,526.780572 L161.121591,537.035652 C160.947924,561.365358 155.897444,596.154151 153.554589,600.988861 C149.656333,609.232871 139.909763,615.164871 137.155453,610.880934 Z M239.439987,590.627481 C236.192808,590.074415 224.296661,585.216096 232.173786,574.156479 C239.680943,563.594481 261.25848,562.843622 259.007959,570.495626 C255.437144,582.858958 246.647835,591.829873 239.439987,590.627481 Z M236.874023,528.147803 C236.874023,513.770034 239.448901,454.477784 252.25635,450.875685 C263.86859,447.609739 260.81823,461.470861 260.394531,471.079444 C259.970832,480.688027 259.272546,491.548266 259.208339,497.701314 C258.829597,534.805762 252.79062,546.274985 242.87822,549.528289 C232.96582,552.781592 236.681635,541.808775 236.874023,528.147803 Z" id="Combined-Shape"></path>
            </g>
        </g>
    </g>
</svg>