<?xml version="1.0" encoding="UTF-8"?>
<svg width="339px" height="180px" viewBox="0 0 339 180" version="1.1" xmlns="http://www.w3.org/2000/svg" xmlns:xlink="http://www.w3.org/1999/xlink">
    <!-- Generator: Sketch 51.1 (57501) - http://www.bohemiancoding.com/sketch -->
    <title>Combined Shape Copy</title>
    <desc>Created with Sketch.</desc>
    <defs></defs>
    <g id="Page-1" stroke="none" stroke-width="1" fill="none" fill-rule="evenodd">
        <g id="Artboard" transform="translate(-181.000000, -576.000000)" fill="#FFFFFF" fill-rule="nonzero">
            <g id="Group" transform="translate(350.500000, 445.500000) scale(-1, 1) rotate(-180.000000) translate(-350.500000, -445.500000) translate(181.000000, 135.000000)">
                <path d="M287.817206,164.470295 C279.553794,138.877313 277.149936,75.2152641 283.358003,43.5213929 C289.990536,9.74740849 316.284474,-8.28244681 334.631215,8.21050928 C342.326033,15.1366518 337.404464,28.4775804 329.051998,23.4525096 C315.198368,15.0364091 308.113886,23.3134036 305.801327,30.8842637 C296.444874,62.1966186 301.36331,122.031214 309.741842,154.838122 C312.686475,166.53808 312.569673,167.466331 307.882968,172.844124 C298.435286,183.912841 293.506289,181.886524 287.817206,164.470295 Z M42.2928753,175.199386 C35.0268486,173.217276 23.0170949,167.504172 20.1087664,166.262729 C4.04469748,159.721246 -3.85078654,144.144225 1.8419268,130.276675 C5.44802558,121.359824 10.8067823,119.675584 11.4642955,127.190994 C12.4383891,138.324935 16.1946355,142.857943 29.7581001,149.618201 C82.4164746,175.489916 124.557167,144.799492 98.0819159,106.72679 C92.3176672,98.4427524 65.3234928,83.585827 61.7115087,83.9018346 C59.9518242,84.0557871 59.1343031,84.1033234 57.696925,102.01674 C56.2595469,119.930156 50.4308428,123.693099 41.1335523,125.160958 C36.8050008,125.820136 36.0153763,125.328261 35.8515561,121.322393 C35.5626511,116.953497 36.2533494,89.5574937 36.9367366,76.0347096 C37.1824922,70.3101343 33.814513,69.046296 26.2057018,66.3462319 C15.3262198,62.529919 13.3043634,68.3529865 11.743002,69.5749077 C10.1816406,70.7968289 6.06210961,77.1773912 2.05089935,70.7968289 C-4.56459033,60.2499394 5.9969171,47.2617255 23.1361657,47.2617255 C26.2210997,47.2617255 26.2210997,46.942725 32.1542969,48.2562016 C38.0874941,49.5696782 36.7968978,44.8792485 37.097168,41.2298344 C37.3974381,37.5804204 37.3924561,33.4195317 38.0874941,28.4009341 C41.2216901,6.62333195 46.2128906,5.59043375 52.6671515,1.85829402 C57.0133995,-0.462041399 60.2460938,-0.609433623 62.3652344,1.41611734 C65.5439453,4.45444379 61.3413233,29.7330195 60.8535156,34.8243205 C60.313763,40.5218227 60.2908129,37.0997815 60.302288,48.5405404 C60.313763,59.9812993 63.3827956,59.6785559 65.8730469,61.5115727 C68.3632982,63.3445894 70.6118872,64.6401293 74.0142069,66.6511948 C101.175077,82.6930523 120.263681,101.404495 124.743851,116.345387 C135.992982,154.254314 90.1460011,187.748031 42.2928753,175.199386 Z M137.155453,169.880934 C135.786424,167.971667 138.696126,138.476496 140.350984,103.28456 C140.979714,91.9861267 141.530982,73.1416827 141.675648,61.3009895 C142.28762,22.8836802 143.016564,19.7828221 153.545436,14.9418325 C162.059496,11.009948 157.870117,28.644633 161.121591,47.7950236 C164.373065,66.9454142 187.600666,97.3287568 192.501783,91.5848468 C196.245844,87.1969586 194.203202,79.0374324 194.299112,65.8005315 C194.382865,28.2404142 197.171326,17.51892 208.119253,11.3585804 C214.444143,7.78272537 217.034601,11.3051596 215.890625,21.925883 C212.880859,38.7208048 214.812385,56.5103418 214.592958,66.2101831 C214.1113,89.7118975 214.883468,104.299485 206.711254,112.692745 C193.601147,126.197724 180.070217,116.528996 167.446116,96.001183 L161.228603,85.7805724 L161.121591,96.0356522 C160.947924,120.365358 155.897444,155.154151 153.554589,159.988861 C149.656333,168.232871 139.909763,174.164871 137.155453,169.880934 Z M239.439987,149.627481 C236.192808,149.074415 224.296661,144.216096 232.173786,133.156479 C239.680943,122.594481 261.25848,121.843622 259.007959,129.495626 C255.437144,141.858958 246.647835,150.829873 239.439987,149.627481 Z M236.874023,87.1478032 C236.874023,72.7700343 239.448901,13.4777839 252.25635,9.87568521 C263.86859,6.6097391 260.81823,20.4708606 260.394531,30.0794438 C259.970832,39.688027 259.272546,50.5482661 259.208339,56.701314 C258.829597,93.8057624 252.79062,105.274985 242.87822,108.528289 C232.96582,111.781592 236.681635,100.808775 236.874023,87.1478032 Z" id="Combined-Shape-Copy"></path>
            </g>
        </g>
    </g>
</svg>