<svg id="Layer_1" data-name="Layer 1" xmlns="http://www.w3.org/2000/svg" viewBox="0 0 318.06 121.87"><defs><style>.cls-1{fill:#fff;}</style></defs><title>phil</title><path class="cls-1" d="M48.3,114.51l-5.95,34.36a2.49,2.49,0,0,1-2.45,2.07H13A2.5,2.5,0,0,1,10.51,148L29.78,38a2.5,2.5,0,0,1,2.45-2.07H77.89q18.19,0,27.53,8t9.34,22a52.48,52.48,0,0,1-.81,8.45,45.66,45.66,0,0,1-8.36,19.49,44.15,44.15,0,0,1-17,13.57,56.38,56.38,0,0,1-24.2,5H50.76A2.48,2.48,0,0,0,48.3,114.51ZM76.67,83.85a15.05,15.05,0,0,0,5-9.42A27.37,27.37,0,0,0,82,71.18q0-9.42-12-9.42H59.84a2.51,2.51,0,0,0-2.46,2.06L53.73,84.33a2.49,2.49,0,0,0,2.45,2.93h9.21Q72.7,87.26,76.67,83.85Z" transform="translate(-10.47 -29.06)"/><path class="cls-1" d="M212.63,66.55q7.22,7.56,7.23,21.2a57.17,57.17,0,0,1-1,10.23L210,148.87a2.5,2.5,0,0,1-2.45,2.07H180.76A2.5,2.5,0,0,1,178.3,148l8.09-46a22.12,22.12,0,0,0,.49-4.38q0-6-3.33-9.26t-9.34-3.25a17.7,17.7,0,0,0-11.69,4.06,20.71,20.71,0,0,0-6.64,11.43c0,.07,0,.14,0,.21l-8.39,48a2.51,2.51,0,0,1-2.46,2.07H118.06A2.5,2.5,0,0,1,115.6,148L135.84,32.8a2.5,2.5,0,0,1,2.46-2.06h26.93a2.5,2.5,0,0,1,2.46,2.93L161.9,66.48A2.49,2.49,0,0,0,166,68.77a39.94,39.94,0,0,1,8-5.47A38.47,38.47,0,0,1,192.08,59Q205.4,59,212.63,66.55Z" transform="translate(-10.47 -29.06)"/><path class="cls-1" d="M249.21,52.62q3.48,3.09,9.77,3.08a20,20,0,0,0,9.17-2.07,16.29,16.29,0,0,0,6.42-5.69,14,14,0,0,0,2.34-7.77,10.23,10.23,0,0,0-3.48-8q-3.48-3.08-9.63-3.08a19.81,19.81,0,0,0-9.24,2.15,16.75,16.75,0,0,0-6.49,5.68,14,14,0,0,0-2.34,7.84A10.05,10.05,0,0,0,249.21,52.62Z" transform="translate(-10.47 -29.06)"/><path class="cls-1" d="M229.32,150.94h26.94a2.49,2.49,0,0,0,2.45-2.07l13.91-78.82a2.49,2.49,0,0,0-2.45-2.93H243.23a2.49,2.49,0,0,0-2.45,2.06L226.87,148A2.5,2.5,0,0,0,229.32,150.94Z" transform="translate(-10.47 -29.06)"/><path class="cls-1" d="M328.49,33.66,308.25,148.87a2.49,2.49,0,0,1-2.46,2.07H278.86A2.5,2.5,0,0,1,276.4,148L296.64,32.8a2.5,2.5,0,0,1,2.46-2.06H326A2.49,2.49,0,0,1,328.49,33.66Z" transform="translate(-10.47 -29.06)"/></svg>